<svg xmlns="http://www.w3.org/2000/svg" viewBox="0 0 2739 2044">
<g fill="#4f9e6a" transform="translate(38.0,1537.0) scale(1,-1)"><path transform="translate(0.0,0)" d="M93 852 12 870Q6 872 4.0 874.5Q2 877 2 880Q2 882 4.0 884.5Q6 887 9 887H93Q98 887 101.5 888.5Q105 890 110 894L353 1092Q360 1098 367.0 1101.5Q374 1105 380 1105Q386 1105 390.5 1100.5Q395 1096 395 1086V260Q395 175 426.0 133.5Q457 92 511 92Q529 92 546.0 98.0Q563 104 577.5 117.0Q592 130 603.5 152.5Q615 175 622 207Q624 214 629.0 214.0Q634 214 632 206Q617 130 586.0 80.5Q555 31 504.0 6.0Q453 -19 378 -19Q246 -19 176.0 42.5Q106 104 106 232V833Q106 842 103.5 846.5Q101 851 93 852ZM306 864 316 887H627Q632 887 634.5 885.5Q637 884 637 879Q637 873 629.5 868.5Q622 864 610 864Z"/><path transform="translate(610.0,0)" d="M666 107V112V1370Q666 1377 662.5 1380.5Q659 1384 651 1384H599Q593 1384 590.5 1386.5Q588 1389 588 1392Q588 1396 591.0 1397.5Q594 1399 598 1400L930 1493Q941 1496 945.0 1496.5Q949 1497 954 1497Q960 1497 963.0 1493.5Q966 1490 966 1484V60Q966 45 972.0 36.5Q978 28 990 25L1037 16Q1043 15 1045.5 12.5Q1048 10 1048 7Q1048 4 1045.5 2.0Q1043 0 1039 0H691Q679 0 672.5 6.5Q666 13 666 26ZM40 415Q40 565 95.5 675.5Q151 786 247.5 846.5Q344 907 465 907Q560 907 618.0 874.0Q676 841 711 777L689 766Q667 816 630.0 842.0Q593 868 540 868Q484 868 440.0 829.5Q396 791 370.5 698.0Q345 605 345 441Q345 297 366.0 209.0Q387 121 425.0 81.0Q463 41 513 41Q558 41 602.5 67.5Q647 94 685 152L698 137Q634 54 567.0 17.0Q500 -20 414 -20Q302 -20 218.0 32.0Q134 84 87.0 181.5Q40 279 40 415Z"/><path transform="translate(1630.0,0)" d="M402 898V778V769V-407Q402 -422 408.0 -430.5Q414 -439 426 -442L477 -451Q483 -452 485.5 -454.5Q488 -457 488 -460Q488 -463 485.5 -465.0Q483 -467 479 -467H32Q29 -467 26.5 -465.0Q24 -463 24 -460Q24 -457 26.5 -454.5Q29 -452 36 -451L78 -442Q92 -439 97.0 -430.5Q102 -422 102 -408V783Q102 790 98.5 794.0Q95 798 87 798H35Q29 798 26.5 800.0Q24 802 24 806Q24 810 27.0 811.5Q30 813 34 814L366 907Q377 909 381.0 910.0Q385 911 390 911Q396 911 399.0 907.5Q402 904 402 898ZM383 732 370 747Q431 828 500.0 867.5Q569 907 658 907Q770 907 854.0 855.0Q938 803 984.5 705.5Q1031 608 1031 472Q1031 322 976.0 211.0Q921 100 825.5 40.0Q730 -20 608 -20Q513 -20 456.0 11.5Q399 43 363 112L385 122Q407 71 443.0 45.5Q479 20 528 20Q585 20 630.0 57.0Q675 94 700.0 186.5Q725 279 725 443Q725 592 703.5 680.5Q682 769 644.0 808.5Q606 848 556 848Q513 848 468.0 820.0Q423 792 383 732Z"/></g>
</svg>
